<?xml version="1.0" encoding="utf-8"?>
<svg version="1.1" xmlns:xlink="http://www.w3.org/1999/xlink" width="13px" height="13px" viewBox="45 42  13 13" xmlns="http://www.w3.org/2000/svg">
  <path d="M 51.5 42  C 55.14 42  58 44.86  58 48.5  C 58 52.14  55.14 55  51.5 55  C 47.86 55  45 52.14  45 48.5  C 45 44.86  47.86 42  51.5 42  Z " fill-rule="nonzero" fill="#ffffff" stroke="none" />
  <path d="M 51.5 42.5  C 54.86 42.5  57.5 45.14  57.5 48.5  C 57.5 51.86  54.86 54.5  51.5 54.5  C 48.14 54.5  45.5 51.86  45.5 48.5  C 45.5 45.14  48.14 42.5  51.5 42.5  Z " stroke-width="1" stroke="#797979" fill="none" />
  <path d="M 51.5 51.75  C 49.68 51.75  48.25 50.32  48.25 48.5  C 48.25 46.68  49.68 45.25  51.5 45.25  C 53.32 45.25  54.75 46.68  54.75 48.5  C 54.75 50.32  53.32 51.75  51.5 51.75  " fill-rule="nonzero" fill="#797979" stroke="none" />
</svg>