<?xml version="1.0" encoding="utf-8"?>
<svg version="1.1" xmlns:xlink="http://www.w3.org/1999/xlink" width="13px" height="13px" viewBox="184 42  13 13" xmlns="http://www.w3.org/2000/svg">
  <path d="M 190.5 42  C 194.14 42  197 44.86  197 48.5  C 197 52.14  194.14 55  190.5 55  C 186.86 55  184 52.14  184 48.5  C 184 44.86  186.86 42  190.5 42  Z " fill-rule="nonzero" fill="#ffffff" stroke="none" />
  <path d="M 190.5 42.5  C 193.86 42.5  196.5 45.14  196.5 48.5  C 196.5 51.86  193.86 54.5  190.5 54.5  C 187.14 54.5  184.5 51.86  184.5 48.5  C 184.5 45.14  187.14 42.5  190.5 42.5  Z " stroke-width="1" stroke="#797979" fill="none" />
  <path d="M 190.5 51.75  C 188.68 51.75  187.25 50.32  187.25 48.5  C 187.25 46.68  188.68 45.25  190.5 45.25  C 192.32 45.25  193.75 46.68  193.75 48.5  C 193.75 50.32  192.32 51.75  190.5 51.75  " fill-rule="nonzero" fill="#797979" stroke="none" />
</svg>