<?xml version="1.0" encoding="utf-8"?>
<svg version="1.1" xmlns:xlink="http://www.w3.org/1999/xlink" width="13px" height="13px" viewBox="34 133  13 13" xmlns="http://www.w3.org/2000/svg">
  <path d="M 40.5 133  C 44.14 133  47 135.86  47 139.5  C 47 143.14  44.14 146  40.5 146  C 36.86 146  34 143.14  34 139.5  C 34 135.86  36.86 133  40.5 133  Z " fill-rule="nonzero" fill="#ffffff" stroke="none" />
  <path d="M 40.5 133.5  C 43.86 133.5  46.5 136.14  46.5 139.5  C 46.5 142.86  43.86 145.5  40.5 145.5  C 37.14 145.5  34.5 142.86  34.5 139.5  C 34.5 136.14  37.14 133.5  40.5 133.5  Z " stroke-width="1" stroke="#797979" fill="none" />
  <path d="M 40.5 142.75  C 38.68 142.75  37.25 141.32  37.25 139.5  C 37.25 137.68  38.68 136.25  40.5 136.25  C 42.32 136.25  43.75 137.68  43.75 139.5  C 43.75 141.32  42.32 142.75  40.5 142.75  " fill-rule="nonzero" fill="#797979" stroke="none" />
</svg>