<?xml version="1.0" encoding="utf-8"?>
<svg version="1.1" xmlns:xlink="http://www.w3.org/1999/xlink" width="13px" height="13px" viewBox="173 133  13 13" xmlns="http://www.w3.org/2000/svg">
  <path d="M 179.5 133  C 183.14 133  186 135.86  186 139.5  C 186 143.14  183.14 146  179.5 146  C 175.86 146  173 143.14  173 139.5  C 173 135.86  175.86 133  179.5 133  Z " fill-rule="nonzero" fill="#ffffff" stroke="none" />
  <path d="M 179.5 133.5  C 182.86 133.5  185.5 136.14  185.5 139.5  C 185.5 142.86  182.86 145.5  179.5 145.5  C 176.14 145.5  173.5 142.86  173.5 139.5  C 173.5 136.14  176.14 133.5  179.5 133.5  Z " stroke-width="1" stroke="#797979" fill="none" />
  <path d="M 179.5 142.75  C 177.68 142.75  176.25 141.32  176.25 139.5  C 176.25 137.68  177.68 136.25  179.5 136.25  C 181.32 136.25  182.75 137.68  182.75 139.5  C 182.75 141.32  181.32 142.75  179.5 142.75  " fill-rule="nonzero" fill="#797979" stroke="none" />
</svg>