<?xml version="1.0" encoding="utf-8"?>
<svg version="1.1" xmlns:xlink="http://www.w3.org/1999/xlink" width="13px" height="13px" viewBox="50 430  13 13" xmlns="http://www.w3.org/2000/svg">
  <path d="M 56.5 430  C 60.14 430  63 432.86  63 436.5  C 63 440.14  60.14 443  56.5 443  C 52.86 443  50 440.14  50 436.5  C 50 432.86  52.86 430  56.5 430  Z " fill-rule="nonzero" fill="#ffffff" stroke="none" />
  <path d="M 56.5 430.5  C 59.86 430.5  62.5 433.14  62.5 436.5  C 62.5 439.86  59.86 442.5  56.5 442.5  C 53.14 442.5  50.5 439.86  50.5 436.5  C 50.5 433.14  53.14 430.5  56.5 430.5  Z " stroke-width="1" stroke="#797979" fill="none" />
  <path d="M 56.5 439.75  C 54.68 439.75  53.25 438.32  53.25 436.5  C 53.25 434.68  54.68 433.25  56.5 433.25  C 58.32 433.25  59.75 434.68  59.75 436.5  C 59.75 438.32  58.32 439.75  56.5 439.75  " fill-rule="nonzero" fill="#797979" stroke="none" />
</svg>