<?xml version="1.0" encoding="utf-8"?>
<svg version="1.1" xmlns:xlink="http://www.w3.org/1999/xlink" width="375px" height="627px" xmlns="http://www.w3.org/2000/svg">
  <g transform="matrix(1 0 0 1 0 -40 )">
    <path d="M 0 40  L 375 40  L 375 667  L 0 667  L 0 40  " fill-rule="nonzero" fill="#cccccc" stroke="none" />
    <path d="M 26 66  L 349 66  L 349 641  L 26 641  L 26 66  " fill-rule="nonzero" fill="#ffffff" stroke="none" />
    <path d="M 223.125 190.3  C 207.375 190.3  195 177.925  195 162.175  C 195 146.425  207.375 134.05  223.125 134.05  C 238.875 134.05  251.25 146.425  251.25 162.175  C 251.25 177.925  238.875 190.3  223.125 190.3  " fill-rule="nonzero" fill="#cccccc" stroke="none" />
    <path d="M 36 632  L 36 326.2  L 112 187.2  L 218.4 298.40000000000003  L 279.20000000000005 270.59999999999997  L 340 298.40000000000003  L 340 632  L 36 632  " fill-rule="nonzero" fill="#169bd5" stroke="none" />
  </g>
</svg>