<?xml version="1.0" encoding="utf-8"?>
<!-- Generator: Adobe Illustrator 28.2.0, SVG Export Plug-In . SVG Version: 6.00 Build 0)  -->
<svg version="1.1" id="Layer_1" xmlns="http://www.w3.org/2000/svg" xmlns:xlink="http://www.w3.org/1999/xlink" x="0px" y="0px"
	 viewBox="0 0 512 512" style="enable-background:new 0 0 512 512;" xml:space="preserve">
<style type="text/css">
	.st0{fill-rule:evenodd;clip-rule:evenodd;fill:#2A7ABD;}
	.st1{fill-rule:evenodd;clip-rule:evenodd;fill:#1F5882;}
</style>
<g>
	<path class="st0" d="M339.56,28.69l6.49-3.74l89.36,56.31c0.94,0.59,2.13,0.63,3.1,0.1c7.04-3.83,14.24-7.5,21.62-10.65
		c4.67-1.99,9.54-3.85,14.46-5.13c3.96-1.03,10.11-2.22,14.05-0.45l1.93,0.87l-0.22,2.11c-1.22,11.9-30.54,30.05-39.11,35.29
		c-0.94,0.58-1.51,1.63-1.47,2.73l4.09,105.55l-6.49,3.73L416.05,127c-0.3-0.84-0.94-1.5-1.76-1.82c-0.36-0.14-0.74-0.22-1.13-0.22
		c-0.48,0-0.97,0.12-1.4,0.34c-21.33,10.99-43.02,21.2-64.75,31.36l-3.28,1.54c-1.14,0.53-1.84,1.73-1.76,2.99l1.65,23.96
		l-9.12,5.26l-29.71-51.46l9.12-5.26l19.92,13.41c1.05,0.71,2.42,0.7,3.46-0.03l2.96-2.07c19.67-13.74,39.36-27.42,59.54-40.4
		c0.75-0.48,1.24-1.26,1.37-2.13c0.13-0.87-0.13-1.76-0.7-2.43L339.56,28.69z"/>
	<path class="st1" d="M298.54,266.67H134.16c-12.41,0-22.81,4.16-31.79,12.72l-63.32,60.36c-6.35,6.06-9.57,13.58-9.57,22.35V415
		c0,17.63,14.34,31.97,31.96,31.97h7.68c2.94-21.66,21.54-38.41,43.99-38.41c22.45,0,41.06,16.75,44,38.41h201.3
		c2.94-21.66,21.54-38.41,43.99-38.41c22.44,0,41.04,16.74,43.99,38.39c11.17-0.17,21.55-4.58,29.28-12.5
		c7.88-8.07,12.06-18.8,11.79-30.22c-0.67-27.43-24.56-42.91-47.94-46.07l-1.85-0.25c-17.96-2.42-24.69-3.33-42.16-13.13
		c-0.49-0.28-0.93-0.61-1.33-1.01l-62.94-63.47C322.28,271.26,311.27,266.67,298.54,266.67L298.54,266.67z M136.03,288h157.88
		c9.38,0,17.63,3.7,23.88,10.68l40.24,45c3.34,3.73,4.14,8.88,2.1,13.45c-2.04,4.57-6.42,7.4-11.42,7.4H81.23
		c-5.01,0-9.38-2.83-11.42-7.4c-2.04-4.56-1.24-9.72,2.1-13.45l40.24-45C118.39,291.69,126.65,288,136.03,288z"/>
	<path class="st0" d="M293.91,300h-64.25v52.53H348.7c0.14,0,0.33,0,0.47-0.3c0.13-0.3,0-0.45-0.09-0.55l-40.24-45
		C304.88,302.24,299.86,300,293.91,300z"/>
	<rect x="164.51" y="300" class="st0" width="53.15" height="52.53"/>
	<path class="st0" d="M152.51,352.53V300h-16.48c-5.95,0-10.97,2.25-14.94,6.68l-40.24,45c-0.1,0.11-0.22,0.25-0.09,0.55
		c0.13,0.3,0.33,0.3,0.47,0.3H152.51z"/>
	<path class="st1" d="M113.12,476.45c-12.95,0-23.49-10.53-23.49-23.49c0-12.95,10.54-23.49,23.49-23.49
		c12.95,0,23.49,10.54,23.49,23.49C136.61,465.91,126.07,476.45,113.12,476.45L113.12,476.45z M145.53,452.96
		c0-17.87-14.54-32.41-32.41-32.41c-17.87,0-32.41,14.54-32.41,32.41c0,17.87,14.54,32.41,32.41,32.41
		C130.99,485.37,145.53,470.83,145.53,452.96z"/>
	<path class="st1" d="M370,452.96c0,17.87,14.54,32.41,32.41,32.41c17.87,0,32.41-14.54,32.41-32.41
		c0-17.87-14.54-32.41-32.41-32.41C384.53,420.55,370,435.09,370,452.96L370,452.96z M402.41,476.45
		c-12.95,0-23.49-10.53-23.49-23.49c0-12.95,10.53-23.49,23.49-23.49c12.95,0,23.49,10.54,23.49,23.49
		C425.9,465.91,415.36,476.45,402.41,476.45z"/>
	<path class="st1" d="M390.92,452.96c0,6.33,5.15,11.49,11.49,11.49c6.33,0,11.49-5.15,11.49-11.49c0-6.33-5.16-11.49-11.49-11.49
		C396.07,441.48,390.92,446.63,390.92,452.96z"/>
	<path class="st1" d="M113.12,464.45c6.34,0,11.49-5.15,11.49-11.49c0-6.33-5.15-11.49-11.49-11.49c-6.33,0-11.49,5.15-11.49,11.49
		C101.63,459.3,106.79,464.45,113.12,464.45z"/>
</g>
</svg>
